<svg width="289" height="294" viewBox="0 0 289 294" fill="none" xmlns="http://www.w3.org/2000/svg">
<path fill-rule="evenodd" clip-rule="evenodd" d="M117.5 17.5C114.833 17.5 112.167 17.5 109.5 17.5C104.938 8.31797 100.938 8.31797 97.5 17.5C96.596 18.209 96.263 19.209 96.5 20.5C95.173 27.514 98.173 30.847 105.5 30.5C105.105 41.33 100.605 43.33 92 36.5C88.733 31.638 86.899 26.305 86.5 20.5C86.325 18.379 86.659 16.379 87.5 14.5C90.229 4.29497 96.895 -0.20503 107.5 0.999971C114.268 4.36197 117.601 9.86197 117.5 17.5Z" fill="#637175"/>
<path fill-rule="evenodd" clip-rule="evenodd" d="M149.5 17.4999C146.833 17.4999 144.167 17.4999 141.5 17.4999C135.761 7.67894 131.428 8.34594 128.5 19.4999C128.5 19.8329 128.5 20.1669 128.5 20.4999C127.088 27.4349 130.088 30.7679 137.5 30.4999C138.264 39.1149 134.597 41.9489 126.5 38.9999C121.797 33.7559 119.13 27.5899 118.5 20.4999C118.5 19.8329 118.5 19.1669 118.5 18.4999C119.953 5.87294 126.953 0.0399448 139.5 0.999945C146.268 4.36194 149.601 9.86194 149.5 17.4999Z" fill="#657376"/>
<path fill-rule="evenodd" clip-rule="evenodd" d="M245.5 17.5C242.833 17.5 240.167 17.5 237.5 17.5C232.317 7.88302 227.984 8.21602 224.5 18.5C224.5 19.167 224.5 19.833 224.5 20.5C223.088 27.435 226.088 30.768 233.5 30.5C234.189 39.146 230.522 41.979 222.5 39C217.415 33.92 214.748 27.753 214.5 20.5C214.5 19.5 214.5 18.5 214.5 17.5C216.818 4.34402 224.484 -0.822982 237.5 2.00002C242.931 5.69302 245.597 10.86 245.5 17.5Z" fill="#6F7B7F"/>
<path fill-rule="evenodd" clip-rule="evenodd" d="M173.5 17.5C169.5 18.833 165.5 18.833 161.5 17.5C161.935 11.209 164.935 9.37604 170.5 12C171.639 13.78 172.639 15.614 173.5 17.5Z" fill="#EBEEF0"/>
<path fill-rule="evenodd" clip-rule="evenodd" d="M205.5 17.5001C207.969 18.3171 210.635 18.8171 213.5 19.0001C206.513 19.0021 199.513 18.8351 192.5 18.5001C196.153 8.17108 200.486 7.83808 205.5 17.5001Z" fill="#E9EFF2"/>
<path fill-rule="evenodd" clip-rule="evenodd" d="M85.5 13.5C85.5 14.833 85.5 16.167 85.5 17.5C82.833 17.5 80.167 17.5 77.5 17.5C76.41 11.874 73.243 9.874 68 11.5C66.906 13.078 66.072 14.745 65.5 16.5C64.566 17.568 64.232 18.901 64.5 20.5C63.034 27.385 66.034 30.719 73.5 30.5C74.264 39.115 70.597 41.949 62.5 39C57.507 33.892 54.84 27.726 54.5 20.5C54.5 19.833 54.5 19.167 54.5 18.5C55.909 5.923 62.909 0.0889972 75.5 0.999997C81.104 3.386 84.437 7.553 85.5 13.5Z" fill="#5E6E72"/>
<path fill-rule="evenodd" clip-rule="evenodd" d="M109.5 17.5C105.5 17.5 101.5 17.5 97.5 17.5C100.938 8.31797 104.938 8.31797 109.5 17.5Z" fill="#F2F3F2"/>
<path fill-rule="evenodd" clip-rule="evenodd" d="M141.5 17.4999C143.969 18.3169 146.635 18.817 149.5 19C142.432 18.639 135.432 18.8059 128.5 19.4999C131.428 8.34594 135.761 7.67894 141.5 17.4999Z" fill="#E9F0F3"/>
<path fill-rule="evenodd" clip-rule="evenodd" d="M213.5 17.5C210.833 17.5 208.167 17.5001 205.5 17.5001C200.486 7.83808 196.153 8.17108 192.5 18.5001C192.5 19.1671 192.5 19.833 192.5 20.5C191.088 27.435 194.088 30.768 201.5 30.5C202.721 37.777 199.721 40.944 192.5 40C186.182 35.535 182.848 29.368 182.5 21.5C182.5 20.167 182.5 18.833 182.5 17.5C184.35 5.48598 191.35 -0.0140252 203.5 0.999975C210.268 4.36197 213.601 9.86198 213.5 17.5Z" fill="#6E7A7E"/>
<path fill-rule="evenodd" clip-rule="evenodd" d="M77.5 17.5C73.298 17.817 69.298 17.483 65.5 16.5C66.072 14.745 66.906 13.078 68 11.5C73.243 9.874 76.41 11.874 77.5 17.5Z" fill="#F4F4F1"/>
<path fill-rule="evenodd" clip-rule="evenodd" d="M237.5 17.5C233.366 18.485 229.032 18.818 224.5 18.5C227.984 8.21602 232.317 7.88302 237.5 17.5Z" fill="#F2F3F3"/>
<path fill-rule="evenodd" clip-rule="evenodd" d="M97.5 17.5C101.5 17.5 105.5 17.5 109.5 17.5C112.167 17.5 114.833 17.5 117.5 17.5C117.5 18.167 117.833 18.4999 118.5 18.4999C118.5 19.1669 118.5 19.8329 118.5 20.4999C111.167 20.4999 103.833 20.5 96.5 20.5C96.263 19.209 96.596 18.209 97.5 17.5Z" fill="#A1CBE8"/>
<path fill-rule="evenodd" clip-rule="evenodd" d="M85.5 13.5C86.167 13.833 86.833 14.167 87.5 14.5C86.659 16.379 86.325 18.379 86.5 20.5C79.167 20.5 71.833 20.5 64.5 20.5C64.232 18.901 64.566 17.568 65.5 16.5C69.298 17.483 73.298 17.817 77.5 17.5C80.167 17.5 82.833 17.5 85.5 17.5C85.5 16.167 85.5 14.833 85.5 13.5Z" fill="#9DC5E1"/>
<path fill-rule="evenodd" clip-rule="evenodd" d="M141.5 17.4999C144.167 17.4999 146.833 17.4999 149.5 17.4999C149.833 17.4999 150.167 17.5 150.5 17.5C150.5 18.5 150.5 19.5 150.5 20.5C143.167 20.5 135.833 20.4999 128.5 20.4999C128.5 20.1669 128.5 19.8329 128.5 19.4999C135.432 18.8059 142.432 18.639 149.5 19C146.635 18.817 143.969 18.3169 141.5 17.4999Z" fill="#97BEDC"/>
<path fill-rule="evenodd" clip-rule="evenodd" d="M161.5 17.5C165.5 18.833 169.5 18.833 173.5 17.5C176.167 17.5 178.833 17.5 181.5 17.5C181.833 17.5 182.167 17.5 182.5 17.5C182.5 18.833 182.5 20.167 182.5 21.5C175.254 20.536 167.92 20.203 160.5 20.5C160.263 19.209 160.596 18.209 161.5 17.5Z" fill="#A2CCE9"/>
<path fill-rule="evenodd" clip-rule="evenodd" d="M205.5 17.5001C208.167 17.5001 210.833 17.5 213.5 17.5C213.833 17.5 214.167 17.5 214.5 17.5C214.5 18.5 214.5 19.5 214.5 20.5C207.167 20.5 199.833 20.5 192.5 20.5C192.5 19.833 192.5 19.1671 192.5 18.5001C199.513 18.8351 206.513 19.0021 213.5 19.0001C210.635 18.8171 207.969 18.3171 205.5 17.5001Z" fill="#92BBD9"/>
<path fill-rule="evenodd" clip-rule="evenodd" d="M54.5 20.5C54.84 27.726 57.507 33.892 62.5 39C70.597 41.949 74.264 39.115 73.5 30.5C66.034 30.719 63.034 27.385 64.5 20.5C71.833 20.5 79.167 20.5 86.5 20.5C86.899 26.305 88.733 31.638 92 36.5C100.605 43.33 105.105 41.33 105.5 30.5C98.173 30.847 95.173 27.514 96.5 20.5C103.833 20.5 111.167 20.4999 118.5 20.4999C119.13 27.5899 121.797 33.7559 126.5 38.9999C134.597 41.9489 138.264 39.1149 137.5 30.4999C130.088 30.7679 127.088 27.4349 128.5 20.4999C135.833 20.4999 143.167 20.5 150.5 20.5C151.171 27.015 153.504 32.848 157.5 38C165.976 42.692 169.976 40.192 169.5 30.5C162.286 30.953 159.286 27.62 160.5 20.5C167.92 20.203 175.254 20.536 182.5 21.5C182.848 29.368 186.182 35.535 192.5 40C199.721 40.944 202.721 37.777 201.5 30.5C194.088 30.768 191.088 27.435 192.5 20.5C199.833 20.5 207.167 20.5 214.5 20.5C214.748 27.753 217.415 33.92 222.5 39C230.522 41.979 234.189 39.146 233.5 30.5C226.088 30.768 223.088 27.435 224.5 20.5C232.174 20.334 239.841 20.5 247.5 21C254.935 23.769 258.269 29.102 257.5 37C256.213 48.177 254.879 59.344 253.5 70.5C252.566 69.432 252.232 68.099 252.5 66.5C179.167 66.5 105.833 66.5 32.5 66.5C33.493 55.033 35.327 43.7 38 32.5C41.15 25.183 46.65 21.183 54.5 20.5Z" fill="#F6FCFD"/>
<path fill-rule="evenodd" clip-rule="evenodd" d="M181.5 17.5C178.833 17.5 176.167 17.5 173.5 17.5C172.639 15.614 171.639 13.78 170.5 12C164.935 9.37604 161.935 11.209 161.5 17.5C160.596 18.209 160.263 19.209 160.5 20.5C159.286 27.62 162.286 30.953 169.5 30.5C169.976 40.192 165.976 42.692 157.5 38C153.504 32.848 151.171 27.015 150.5 20.5C150.5 19.5 150.5 18.5 150.5 17.5C152.391 5.438 159.391 -0.062 171.5 1C178.371 4.368 181.704 9.868 181.5 17.5Z" fill="#6E7A7D"/>
<path fill-rule="evenodd" clip-rule="evenodd" d="M247.5 18.5C264.204 18.531 273.871 26.864 276.5 43.5C272.833 43.5 269.167 43.5 265.5 43.5C264.5 43.5 263.5 43.5 262.5 43.5C262.917 39.183 262.25 35.183 260.5 31.5C258.432 24.766 254.099 20.432 247.5 18.5Z" fill="#768387"/>
<path fill-rule="evenodd" clip-rule="evenodd" d="M54.5 18.5C54.5 19.167 54.5 19.833 54.5 20.5C46.65 21.183 41.15 25.183 38 32.5C35.327 43.7 33.493 55.033 32.5 66.5C31.699 68.042 31.366 69.708 31.5 71.5C28.81 85.979 26.477 100.645 24.5 115.5C23.962 117.117 23.629 118.784 23.5 120.5C21.343 134.132 19.343 147.799 17.5 161.5C16.833 164.167 16.167 166.833 15.5 169.5C15.179 167.952 14.179 167.285 12.5 167.5C19.246 123.111 26.413 78.778 34 34.5C37.807 25.183 44.64 19.85 54.5 18.5Z" fill="#9ECDEB"/>
<path fill-rule="evenodd" clip-rule="evenodd" d="M32.5 66.5C105.833 66.5 179.167 66.5 252.5 66.5C252.232 68.099 252.566 69.432 253.5 70.5C253.784 72.415 253.451 74.081 252.5 75.5C252.5 74.167 252.5 72.833 252.5 71.5C178.833 71.5 105.167 71.5 31.5 71.5C31.366 69.708 31.699 68.042 32.5 66.5Z" fill="#CDECF6"/>
<path fill-rule="evenodd" clip-rule="evenodd" d="M265.5 43.5C269.167 43.5 272.833 43.5 276.5 43.5C280.53 115.826 284.53 188.159 288.5 260.5C289.065 280.597 279.399 291.597 259.5 293.5C258.048 292.698 256.382 292.198 254.5 292C271.043 287.278 278.043 276.278 275.5 259C272.017 187.17 268.683 115.336 265.5 43.5Z" fill="#BE7B24"/>
<path fill-rule="evenodd" clip-rule="evenodd" d="M31.5 71.5C105.167 71.5 178.833 71.5 252.5 71.5C252.5 72.833 252.5 74.167 252.5 75.5C251.161 88.88 249.494 102.214 247.5 115.5C223.5 115.5 199.5 115.5 175.5 115.5C175.579 116.93 175.246 118.264 174.5 119.5C198.491 120.5 222.491 120.833 246.5 120.5C244.886 135.35 242.886 150.017 240.5 164.5C233.5 164.5 226.5 164.5 219.5 164.5C219.737 165.791 219.404 166.791 218.5 167.5C221.57 153.422 217.903 141.589 207.5 132C194.509 125.075 182.342 126.242 171 135.5C172.603 123.209 174.436 110.876 176.5 98.5C169.5 98.5 162.5 98.5 155.5 98.5C151.664 123.858 147.664 149.191 143.5 174.5C142.41 171.319 142.41 167.985 143.5 164.5C139.5 164.5 135.5 164.5 131.5 164.5C131.754 166.401 131.42 167.067 130.5 166.5C133.833 143.837 137.166 121.17 140.5 98.5C133.167 98.5 125.833 98.5 118.5 98.5C114.283 122.745 110.783 147.079 108 171.5C101.21 154.924 94.71 138.257 88.5 121.5C96.657 120.671 104.99 120.171 113.5 120C114.38 118.644 114.714 117.144 114.5 115.5C104.903 114.903 95.57 115.569 86.5 117.5C84.07 111.379 81.737 105.213 79.5 99C71.173 98.5 62.84 98.334 54.5 98.5C51.687 118.527 48.687 138.527 45.5 158.5C44.848 157.551 44.514 156.385 44.5 155C46.332 143.509 47.999 132.009 49.5 120.5C50.451 119.081 50.784 117.415 50.5 115.5C41.833 115.5 33.167 115.5 24.5 115.5C26.477 100.645 28.81 85.979 31.5 71.5Z" fill="#EFF7FB"/>
<path fill-rule="evenodd" clip-rule="evenodd" d="M86.5 117.5C86.989 118.995 87.655 120.329 88.5 121.5C94.71 138.257 101.21 154.924 108 171.5C110.783 147.079 114.283 122.745 118.5 98.5C125.833 98.5 133.167 98.5 140.5 98.5C137.166 121.17 133.833 143.837 130.5 166.5C127.717 180.631 125.384 194.964 123.5 209.5C115.248 209.816 107.081 209.482 99 208.5C90.223 182.949 80.89 157.616 71 132.5C67.383 158.203 63.549 183.87 59.5 209.5C51.804 209.831 44.138 209.497 36.5 208.5C39.503 191.824 42.503 175.158 45.5 158.5C48.687 138.527 51.687 118.527 54.5 98.5C62.84 98.334 71.173 98.5 79.5 99C81.737 105.213 84.07 111.379 86.5 117.5Z" fill="#161616"/>
<path fill-rule="evenodd" clip-rule="evenodd" d="M88.5 121.5C87.655 120.329 86.989 118.995 86.5 117.5C95.57 115.569 104.903 114.903 114.5 115.5C114.714 117.144 114.38 118.644 113.5 120C104.99 120.171 96.657 120.671 88.5 121.5Z" fill="#C6E7F1"/>
<path fill-rule="evenodd" clip-rule="evenodd" d="M24.5 115.5C33.167 115.5 41.833 115.5 50.5 115.5C50.784 117.415 50.451 119.081 49.5 120.5C40.833 120.5 32.167 120.5 23.5 120.5C23.629 118.784 23.962 117.117 24.5 115.5Z" fill="#C0E5F0"/>
<path fill-rule="evenodd" clip-rule="evenodd" d="M247.5 115.5C247.634 117.292 247.301 118.958 246.5 120.5C222.491 120.833 198.491 120.5 174.5 119.5C175.246 118.264 175.579 116.93 175.5 115.5C199.5 115.5 223.5 115.5 247.5 115.5Z" fill="#C3E6F1"/>
<path fill-rule="evenodd" clip-rule="evenodd" d="M262.5 43.5C263.5 43.5 264.5 43.5 265.5 43.5C268.683 115.336 272.017 187.17 275.5 259C278.043 276.278 271.043 287.278 254.5 292C256.382 292.198 258.048 292.698 259.5 293.5C188.833 293.667 118.166 293.5 47.5 293C45.618 292.802 43.952 292.302 42.5 291.5C41.197 290.321 39.197 289.155 36.5 288C38.107 288.019 39.774 288.185 41.5 288.5C41.094 286.891 41.094 285.557 41.5 284.5C42.406 287.644 44.239 287.977 47 285.5C48.791 287.513 50.125 287.513 51 285.5C53.733 287.105 56.733 288.105 60 288.5C62.533 287.128 65.2 286.128 68 285.5C68.519 286.516 69.353 287.182 70.5 287.5C72.105 286.57 73.605 286.57 75 287.5C76.316 284.972 77.483 284.972 78.5 287.5C82.228 286.723 85.728 286.723 89 287.5C92.09 286.607 94.923 285.941 97.5 285.5C98.142 288.797 99.309 289.131 101 286.5C109.728 286.742 118.395 286.742 127 286.5C128.818 288.645 130.318 288.645 131.5 286.5C134.239 286.771 137.073 286.771 140 286.5C141.396 287.394 142.896 288.061 144.5 288.5C148.147 287.625 151.647 287.625 155 288.5C158.464 286.316 161.797 286.65 165 289.5C166.799 289.279 168.632 288.946 170.5 288.5C170.833 289.167 171.167 289.833 171.5 290.5C172.386 289.675 172.719 288.675 172.5 287.5C173.552 287.351 174.552 287.517 175.5 288C174.112 288.889 174.278 289.389 176 289.5C177.646 287.859 178.646 288.193 179 290.5C179.5 290 180 289.5 180.5 289C184.089 288.793 187.589 288.293 191 287.5C191.333 287.833 191.667 288.167 192 288.5C193.586 287.624 195.086 286.624 196.5 285.5C202.049 287.896 207.716 287.896 213.5 285.5C216.167 286.833 218.833 286.833 221.5 285.5C222.517 288.028 223.684 288.028 225 285.5C225.308 286.308 225.808 286.975 226.5 287.5C228.703 285.822 231.203 284.822 234 284.5C235.15 285.424 236.15 285.424 237 284.5C237.667 287.167 238.333 287.167 239 284.5C239.333 284.833 239.667 285.167 240 285.5C241.688 283.211 243.521 281.877 245.5 281.5C246.696 281.846 246.696 282.346 245.5 283C246.793 283.49 248.127 283.657 249.5 283.5C249.5 282.5 249.5 281.5 249.5 280.5C250.552 280.649 251.552 280.483 252.5 280C250.956 279.71 249.623 279.044 248.5 278C250.306 276.194 252.14 274.36 254 272.5C254.914 273.654 255.747 273.487 256.5 272C255.376 271.751 254.376 271.251 253.5 270.5C253.667 270.167 253.833 269.833 254 269.5C255.268 269.616 256.602 269.949 258 270.5C258.617 269.551 258.451 268.718 257.5 268C259.002 267.417 260.335 266.584 261.5 265.5C261.154 264.304 260.654 264.304 260 265.5C259.792 263.141 259.626 260.974 259.5 259C264.397 255.839 264.397 252.839 259.5 250C260.128 247.391 261.128 244.725 262.5 242C261.167 239.333 261.167 236.667 262.5 234C260.699 233.683 260.366 233.016 261.5 232C259.022 230.062 258.855 227.895 261 225.5C261.451 227.929 262.285 228.096 263.5 226C261.35 223.959 260.35 221.459 260.5 218.5C261.552 218.649 262.552 218.483 263.5 218C262.782 216.013 261.782 214.179 260.5 212.5C261.04 211.252 261.707 210.085 262.5 209C260.991 202.153 261.324 195.153 263.5 188C262.833 187.667 262.167 187.333 261.5 187C262.516 186.481 263.182 185.647 263.5 184.5C263.214 181.262 263.214 178.095 263.5 175C262.833 174.667 262.167 174.333 261.5 174C262.551 171.631 263.218 169.131 263.5 166.5C263.291 165.006 262.624 163.839 261.5 163C262.516 162.481 263.182 161.647 263.5 160.5C263.805 153.988 263.472 147.654 262.5 141.5C262.59 139.575 263.59 138.408 265.5 138C262.456 137.641 262.122 136.974 264.5 136C261.536 135.16 261.203 134.16 263.5 133C262.905 129.575 262.738 126.075 263 122.5C262.667 122.833 262.333 123.167 262 123.5C259.528 121.702 257.861 119.368 257 116.5C256.28 123.942 255.113 129.942 253.5 134.5C256.747 104.187 259.747 73.854 262.5 43.5Z" fill="#99601B"/>
<path fill-rule="evenodd" clip-rule="evenodd" d="M218.5 167.5C216.661 176.843 213.495 185.843 209 194.5C198.61 207.853 185.11 212.687 168.5 209C165.217 207.439 162.383 205.273 160 202.5C158.798 204.677 158.298 207.011 158.5 209.5C151.5 209.5 144.5 209.5 137.5 209.5C139.582 197.842 141.582 186.176 143.5 174.5C147.664 149.191 151.664 123.858 155.5 98.5C162.5 98.5 169.5 98.5 176.5 98.5C174.436 110.876 172.603 123.209 171 135.5C182.342 126.242 194.509 125.075 207.5 132C217.903 141.589 221.57 153.422 218.5 167.5Z" fill="#161616"/>
<path fill-rule="evenodd" clip-rule="evenodd" d="M237.5 17.5C240.167 17.5 242.833 17.5 245.5 17.5C245.842 18.338 246.508 18.672 247.5 18.5C254.099 20.432 258.432 24.766 260.5 31.5C252.905 97.923 244.572 164.256 235.5 230.5C235.582 222.839 235.582 215.172 235.5 207.5C237.094 193.156 238.76 178.823 240.5 164.5C242.886 150.017 244.886 135.35 246.5 120.5C247.301 118.958 247.634 117.292 247.5 115.5C249.494 102.214 251.161 88.88 252.5 75.5C253.451 74.081 253.784 72.415 253.5 70.5C254.879 59.344 256.213 48.177 257.5 37C258.269 29.102 254.935 23.769 247.5 21C239.841 20.5 232.174 20.334 224.5 20.5C224.5 19.833 224.5 19.167 224.5 18.5C229.032 18.818 233.366 18.485 237.5 17.5Z" fill="#97C7E7"/>
<path fill-rule="evenodd" clip-rule="evenodd" d="M260.5 31.5C262.25 35.183 262.917 39.183 262.5 43.5C259.747 73.854 256.747 104.187 253.5 134.5C248.771 168.655 244.271 202.988 240 237.5C238.819 246.923 236.319 255.923 232.5 264.5C231.957 264.44 231.624 264.107 231.5 263.5C233.045 258.413 234.712 253.413 236.5 248.5C235.933 246.018 235.266 243.684 234.5 241.5C234.552 237.802 234.886 234.135 235.5 230.5C244.572 164.256 252.905 97.923 260.5 31.5Z" fill="#5EA8CD"/>
<path fill-rule="evenodd" clip-rule="evenodd" d="M17.5 161.5C17.5 162.5 17.5 163.5 17.5 164.5C25.833 164.5 34.167 164.5 42.5 164.5C42.739 166.467 42.406 168.301 41.5 170C32.84 170.5 24.173 170.666 15.5 170.5C15.5 170.167 15.5 169.833 15.5 169.5C16.167 166.833 16.833 164.167 17.5 161.5Z" fill="#B7DEEA"/>
<path fill-rule="evenodd" clip-rule="evenodd" d="M240.5 164.5C238.76 178.823 237.094 193.156 235.5 207.5C234.781 209.764 234.448 212.097 234.5 214.5C159.167 214.5 83.833 214.5 8.5 214.5C10.271 202.665 12.271 190.998 14.5 179.5C14.351 180.552 14.517 181.552 15 182.5C15.936 178.886 16.436 175.22 16.5 171.5C23.167 171.5 29.833 171.5 36.5 171.5C37.248 173.584 37.248 175.584 36.5 177.5C37.522 178.354 38.355 179.354 39 180.5C39.333 179.5 39.667 178.5 40 177.5C38.998 187.685 37.498 197.852 35.5 208C35.585 209.107 35.919 210.107 36.5 211C44.216 211.8 51.883 211.633 59.5 210.5C61.319 203.93 62.819 197.263 64 190.5C64.411 194.471 65.411 197.804 67 200.5C68.016 199.366 68.683 199.699 69 201.5C71.118 197.439 73.785 197.772 77 202.5C77.333 201.833 77.667 201.167 78 200.5C79.333 201.167 80.667 201.833 82 202.5C83.333 201.167 84.667 199.833 86 198.5C86.658 200.108 86.158 201.275 84.5 202C87.633 205.157 90.633 204.823 93.5 201C90.536 200.16 90.203 199.16 92.5 198C91.446 196.612 91.28 195.112 92 193.5C93.306 196.612 94.472 199.779 95.5 203C95.025 204.763 94.358 206.43 93.5 208C94.536 209.617 95.703 209.784 97 208.5C97.833 209.333 98.667 210.167 99.5 211C107.5 211.667 115.5 211.667 123.5 211C125.033 206.295 126.2 201.462 127 196.5C126.923 200.229 127.09 203.896 127.5 207.5C128.842 206.098 129.676 206.431 130 208.5C130.333 207.833 130.667 207.167 131 206.5C134.097 209.682 135.763 209.015 136 204.5C136.236 206.764 136.736 208.931 137.5 211C141 211.167 144.5 211.333 148 211.5C151.902 211.488 155.402 210.821 158.5 209.5C158.298 207.011 158.798 204.677 160 202.5C162.383 205.273 165.217 207.439 168.5 209C185.11 212.687 198.61 207.853 209 194.5C213.495 185.843 216.661 176.843 218.5 167.5C219.404 166.791 219.737 165.791 219.5 164.5C226.5 164.5 233.5 164.5 240.5 164.5Z" fill="#D9E9F0"/>
<path fill-rule="evenodd" clip-rule="evenodd" d="M179.5 146.5C187.514 144.761 193.347 147.428 197 154.5C199.689 167.421 196.523 178.588 187.5 188C180.433 192.599 173.433 192.599 166.5 188C164.509 185.517 163.509 182.684 163.5 179.5C164.342 172.115 165.509 164.781 167 157.5C170.124 152.536 174.291 148.87 179.5 146.5Z" fill="#E7EFF3"/>
<path fill-rule="evenodd" clip-rule="evenodd" d="M167.5 164.5C177.167 164.5 186.833 164.5 196.5 164.5C196.579 165.93 196.246 167.264 195.5 168.5C185.856 169.498 176.19 169.832 166.5 169.5C166.366 167.708 166.699 166.042 167.5 164.5Z" fill="#BBDFEA"/>
<path fill-rule="evenodd" clip-rule="evenodd" d="M23.5 120.5C32.167 120.5 40.833 120.5 49.5 120.5C47.999 132.009 46.332 143.509 44.5 155C44.514 156.385 44.848 157.551 45.5 158.5C42.503 175.158 39.503 191.824 36.5 208.5C44.138 209.497 51.804 209.831 59.5 209.5C63.549 183.87 67.383 158.203 71 132.5C80.89 157.616 90.223 182.949 99 208.5C107.081 209.482 115.248 209.816 123.5 209.5C125.384 194.964 127.717 180.631 130.5 166.5C131.42 167.067 131.754 166.401 131.5 164.5C135.5 164.5 139.5 164.5 143.5 164.5C142.41 167.985 142.41 171.319 143.5 174.5C141.582 186.176 139.582 197.842 137.5 209.5C144.5 209.5 151.5 209.5 158.5 209.5C155.402 210.821 151.902 211.488 148 211.5C144.5 211.333 141 211.167 137.5 211C136.736 208.931 136.236 206.764 136 204.5C135.763 209.015 134.097 209.682 131 206.5C130.667 207.167 130.333 207.833 130 208.5C129.676 206.431 128.842 206.098 127.5 207.5C127.09 203.896 126.923 200.229 127 196.5C126.2 201.462 125.033 206.295 123.5 211C115.5 211.667 107.5 211.667 99.5 211C98.667 210.167 97.833 209.333 97 208.5C95.703 209.784 94.536 209.617 93.5 208C94.358 206.43 95.025 204.763 95.5 203C94.472 199.779 93.306 196.612 92 193.5C91.28 195.112 91.446 196.612 92.5 198C90.203 199.16 90.536 200.16 93.5 201C90.633 204.823 87.633 205.157 84.5 202C86.158 201.275 86.658 200.108 86 198.5C84.667 199.833 83.333 201.167 82 202.5C80.667 201.833 79.333 201.167 78 200.5C77.667 201.167 77.333 201.833 77 202.5C73.785 197.772 71.118 197.439 69 201.5C68.683 199.699 68.016 199.366 67 200.5C65.411 197.804 64.411 194.471 64 190.5C62.819 197.263 61.319 203.93 59.5 210.5C51.883 211.633 44.216 211.8 36.5 211C35.919 210.107 35.585 209.107 35.5 208C37.498 197.852 38.998 187.685 40 177.5C39.667 178.5 39.333 179.5 39 180.5C38.355 179.354 37.522 178.354 36.5 177.5C37.248 175.584 37.248 173.584 36.5 171.5C29.833 171.5 23.167 171.5 16.5 171.5C16.436 175.22 15.936 178.886 15 182.5C14.517 181.552 14.351 180.552 14.5 179.5C14.963 176.518 15.296 173.518 15.5 170.5C24.173 170.666 32.84 170.5 41.5 170C42.406 168.301 42.739 166.467 42.5 164.5C34.167 164.5 25.833 164.5 17.5 164.5C17.5 163.5 17.5 162.5 17.5 161.5C19.343 147.799 21.343 134.132 23.5 120.5Z" fill="#E4EEF3"/>
<path fill-rule="evenodd" clip-rule="evenodd" d="M42.5 291.5C32.298 289.303 24.632 283.636 19.5 274.5C24.893 276.879 30.56 277.879 36.5 277.5C39.627 278.581 42.96 279.247 46.5 279.5C51.944 280.884 57.611 281.55 63.5 281.5C75.691 282.72 88.024 283.72 100.5 284.5C103.381 283.608 106.214 283.941 109 285.5C113.045 284.225 117.045 284.225 121 285.5C123.218 284.528 125.551 283.861 128 283.5C142.014 283.403 156.181 283.57 170.5 284C173.758 284.212 176.924 284.712 180 285.5C180.333 284.833 180.667 284.167 181 283.5C186.554 283.606 192.054 283.94 197.5 284.5C198.5 284 199.5 283.5 200.5 283C205.418 282.805 210.251 282.305 215 281.5C215.333 281.833 215.667 282.167 216 282.5C218.166 280.879 220.666 280.045 223.5 280C222.007 278.632 220.507 278.465 219 279.5C218.722 278.584 218.222 277.918 217.5 277.5C217.5 276.833 217.167 276.5 216.5 276.5C223.225 274.453 228.558 270.453 232.5 264.5C236.319 255.923 238.819 246.923 240 237.5C244.271 202.988 248.771 168.655 253.5 134.5C255.113 129.942 256.28 123.942 257 116.5C257.861 119.368 259.528 121.702 262 123.5C262.333 123.167 262.667 122.833 263 122.5C262.738 126.075 262.905 129.575 263.5 133C261.203 134.16 261.536 135.16 264.5 136C262.122 136.974 262.456 137.641 265.5 138C263.59 138.408 262.59 139.575 262.5 141.5C263.472 147.654 263.805 153.988 263.5 160.5C263.182 161.647 262.516 162.481 261.5 163C262.624 163.839 263.291 165.006 263.5 166.5C263.218 169.131 262.551 171.631 261.5 174C262.167 174.333 262.833 174.667 263.5 175C263.214 178.095 263.214 181.262 263.5 184.5C263.182 185.647 262.516 186.481 261.5 187C262.167 187.333 262.833 187.667 263.5 188C261.324 195.153 260.991 202.153 262.5 209C261.707 210.085 261.04 211.252 260.5 212.5C261.782 214.179 262.782 216.013 263.5 218C262.552 218.483 261.552 218.649 260.5 218.5C260.35 221.459 261.35 223.959 263.5 226C262.285 228.096 261.451 227.929 261 225.5C258.855 227.895 259.022 230.062 261.5 232C260.366 233.016 260.699 233.683 262.5 234C261.167 236.667 261.167 239.333 262.5 242C261.128 244.725 260.128 247.391 259.5 250C264.397 252.839 264.397 255.839 259.5 259C259.626 260.974 259.792 263.141 260 265.5C260.654 264.304 261.154 264.304 261.5 265.5C260.335 266.584 259.002 267.417 257.5 268C258.451 268.718 258.617 269.551 258 270.5C256.602 269.949 255.268 269.616 254 269.5C253.833 269.833 253.667 270.167 253.5 270.5C254.376 271.251 255.376 271.751 256.5 272C255.747 273.487 254.914 273.654 254 272.5C252.14 274.36 250.306 276.194 248.5 278C249.623 279.044 250.956 279.71 252.5 280C251.552 280.483 250.552 280.649 249.5 280.5C249.5 281.5 249.5 282.5 249.5 283.5C248.127 283.657 246.793 283.49 245.5 283C246.696 282.346 246.696 281.846 245.5 281.5C243.521 281.877 241.688 283.211 240 285.5C239.667 285.167 239.333 284.833 239 284.5C238.333 287.167 237.667 287.167 237 284.5C236.15 285.424 235.15 285.424 234 284.5C231.203 284.822 228.703 285.822 226.5 287.5C225.808 286.975 225.308 286.308 225 285.5C223.684 288.028 222.517 288.028 221.5 285.5C218.833 286.833 216.167 286.833 213.5 285.5C207.716 287.896 202.049 287.896 196.5 285.5C195.086 286.624 193.586 287.624 192 288.5C191.667 288.167 191.333 287.833 191 287.5C187.589 288.293 184.089 288.793 180.5 289C180 289.5 179.5 290 179 290.5C178.646 288.193 177.646 287.859 176 289.5C174.278 289.389 174.112 288.889 175.5 288C174.552 287.517 173.552 287.351 172.5 287.5C172.719 288.675 172.386 289.675 171.5 290.5C171.167 289.833 170.833 289.167 170.5 288.5C168.632 288.946 166.799 289.279 165 289.5C161.797 286.65 158.464 286.316 155 288.5C151.647 287.625 148.147 287.625 144.5 288.5C142.896 288.061 141.396 287.394 140 286.5C137.073 286.771 134.239 286.771 131.5 286.5C130.318 288.645 128.818 288.645 127 286.5C118.395 286.742 109.728 286.742 101 286.5C99.309 289.131 98.142 288.797 97.5 285.5C94.923 285.941 92.09 286.607 89 287.5C85.728 286.723 82.228 286.723 78.5 287.5C77.483 284.972 76.316 284.972 75 287.5C73.605 286.57 72.105 286.57 70.5 287.5C69.353 287.182 68.519 286.516 68 285.5C65.2 286.128 62.533 287.128 60 288.5C56.733 288.105 53.733 287.105 51 285.5C50.125 287.513 48.791 287.513 47 285.5C44.239 287.977 42.406 287.644 41.5 284.5C41.094 285.557 41.094 286.891 41.5 288.5C39.774 288.185 38.107 288.019 36.5 288C39.197 289.155 41.197 290.321 42.5 291.5Z" fill="#8F5C1C"/>
<path fill-rule="evenodd" clip-rule="evenodd" d="M12.5 167.5C14.179 167.285 15.179 167.952 15.5 169.5C15.5 169.833 15.5 170.167 15.5 170.5C15.296 173.518 14.963 176.518 14.5 179.5C12.271 190.998 10.271 202.665 8.5 214.5C8.5 216.167 8.49992 217.833 8.49992 219.5C6.77592 224.908 5.77592 230.575 5.49992 236.5C3.48992 241.969 3.15592 247.636 4.49992 253.5C6.68192 259.181 10.6819 263.014 16.4999 265C82.4999 265.667 148.5 265.667 214.5 265C218.927 263.465 222.594 260.965 225.5 257.5C229.723 251.208 231.723 244.208 231.5 236.5C232.167 231.167 232.833 225.833 233.5 220.5C234.461 218.735 234.795 216.735 234.5 214.5C234.448 212.097 234.781 209.764 235.5 207.5C235.582 215.172 235.582 222.839 235.5 230.5C234.886 234.135 234.552 237.802 234.5 241.5C234.413 251.61 230.746 260.11 223.5 267C220.754 268.75 217.754 269.75 214.5 270C146.588 270.49 78.9219 270.657 11.4999 270.5C3.62592 265.466 -0.0410807 258.299 0.499919 249C3.72292 221.713 7.723 194.547 12.5 167.5Z" fill="#6BB3D4"/>
<path fill-rule="evenodd" clip-rule="evenodd" d="M225.5 257.5C222.594 260.965 218.927 263.465 214.5 265C148.5 265.667 82.4999 265.667 16.4999 265C10.6819 263.014 6.68192 259.181 4.49992 253.5C5.16092 252.282 5.828 250.949 6.5 249.5C7.503 251.542 8.837 251.875 10.5 250.5C12.413 251.373 14.247 252.373 16 253.5C17.482 251.219 19.149 251.219 21 253.5C22.016 252.366 22.683 252.699 23 254.5C24.388 253.446 25.888 253.28 27.5 254C26.833 254.333 26.167 254.667 25.5 255C26.766 255.309 27.933 255.809 29 256.5C29.471 254.754 30.138 253.087 31 251.5C31.772 252.849 32.939 253.682 34.5 254C33.549 254.718 33.383 255.551 34 256.5C36.28 256.58 38.613 255.913 41 254.5C42.885 256.02 45.051 257.02 47.5 257.5C47.5 256.5 47.5 255.5 47.5 254.5C48.833 255.833 50.167 257.167 51.5 258.5C52.799 257.91 53.632 256.91 54 255.5C55.129 257.516 55.962 259.182 56.5 260.5C58.134 260.032 59.3 259.032 60 257.5C61.722 257.962 63.555 258.128 65.5 258C66.126 258.75 66.626 259.584 67 260.5C67.308 259.692 67.808 259.025 68.5 258.5C68.669 259.397 69.002 260.397 69.5 261.5C70.833 260.167 72.167 260.167 73.5 261.5C75.48 260.516 77.147 259.183 78.5 257.5C81.786 258.526 84.619 260.192 87 262.5C89.553 261.777 91.72 260.444 93.5 258.5C95.071 259.309 96.738 259.643 98.5 259.5C98.272 261.355 98.939 262.188 100.5 262C101.249 260.266 101.749 258.433 102 256.5C104.326 261.589 107.826 262.589 112.5 259.5C113.5 260.833 114.5 260.833 115.5 259.5C116.192 260.025 116.692 260.692 117 261.5C117.667 260.167 118.333 258.833 119 257.5C121.198 259.375 123.031 259.375 124.5 257.5C124.307 258.688 124.807 260.022 126 261.5C128.499 260.997 131.332 260.497 134.5 260C136.183 257.79 138.183 257.29 140.5 258.5C141.517 255.972 142.684 255.972 144 258.5C146.022 257.009 147.688 257.342 149 259.5C152.347 257.995 155.347 255.995 158 253.5C158.29 255.044 158.956 256.377 160 257.5C160.667 256.167 161.667 255.167 163 254.5C162.737 255.951 162.904 257.284 163.5 258.5C165.544 257.761 167.711 256.427 170 254.5C170.991 255.939 172.324 256.939 174 257.5C176.658 255.56 179.325 253.56 182 251.5C182.483 252.448 182.649 253.448 182.5 254.5C184.734 254.38 186.901 254.713 189 255.5C191.135 254.072 193.302 252.738 195.5 251.5C196.113 252.98 196.446 254.313 196.5 255.5C197.27 253.728 198.603 252.728 200.5 252.5C201.929 254.083 203.429 254.75 205 254.5C205.221 251.057 206.221 250.724 208 253.5C210.407 253.327 212.74 253.327 215 253.5C215.902 250.196 217.236 249.862 219 252.5C220.261 252.241 221.261 251.574 222 250.5C223 251.5 224 252.5 225 253.5C225.419 252.328 226.085 251.328 227 250.5C227.044 252.76 226.211 254.76 224.5 256.5C224.624 257.107 224.957 257.44 225.5 257.5Z" fill="#B8DAE9"/>
<path fill-rule="evenodd" clip-rule="evenodd" d="M231.5 236.5C231.723 244.208 229.723 251.208 225.5 257.5C224.957 257.44 224.624 257.107 224.5 256.5C226.211 254.76 227.044 252.76 227 250.5C226.085 251.328 225.419 252.328 225 253.5C224 252.5 223 251.5 222 250.5C221.261 251.574 220.261 252.241 219 252.5C217.236 249.862 215.902 250.196 215 253.5C212.74 253.327 210.407 253.327 208 253.5C206.221 250.724 205.221 251.057 205 254.5C203.429 254.75 201.929 254.083 200.5 252.5C198.603 252.728 197.27 253.728 196.5 255.5C196.446 254.313 196.113 252.98 195.5 251.5C193.302 252.738 191.135 254.072 189 255.5C186.901 254.713 184.734 254.38 182.5 254.5C182.649 253.448 182.483 252.448 182 251.5C179.325 253.56 176.658 255.56 174 257.5C172.324 256.939 170.991 255.939 170 254.5C167.711 256.427 165.544 257.761 163.5 258.5C162.904 257.284 162.737 255.951 163 254.5C161.667 255.167 160.667 256.167 160 257.5C158.956 256.377 158.29 255.044 158 253.5C155.347 255.995 152.347 257.995 149 259.5C147.688 257.342 146.022 257.009 144 258.5C142.684 255.972 141.517 255.972 140.5 258.5C138.183 257.29 136.183 257.79 134.5 260C131.332 260.497 128.499 260.997 126 261.5C124.807 260.022 124.307 258.688 124.5 257.5C123.031 259.375 121.198 259.375 119 257.5C118.333 258.833 117.667 260.167 117 261.5C116.692 260.692 116.192 260.025 115.5 259.5C114.5 260.833 113.5 260.833 112.5 259.5C107.826 262.589 104.326 261.589 102 256.5C101.749 258.433 101.249 260.266 100.5 262C98.939 262.188 98.272 261.355 98.5 259.5C96.738 259.643 95.071 259.309 93.5 258.5C91.72 260.444 89.553 261.777 87 262.5C84.619 260.192 81.786 258.526 78.5 257.5C77.147 259.183 75.48 260.516 73.5 261.5C72.167 260.167 70.833 260.167 69.5 261.5C69.002 260.397 68.669 259.397 68.5 258.5C67.808 259.025 67.308 259.692 67 260.5C66.626 259.584 66.126 258.75 65.5 258C63.555 258.128 61.722 257.962 60 257.5C59.3 259.032 58.134 260.032 56.5 260.5C55.962 259.182 55.129 257.516 54 255.5C53.632 256.91 52.799 257.91 51.5 258.5C50.167 257.167 48.833 255.833 47.5 254.5C47.5 255.5 47.5 256.5 47.5 257.5C45.051 257.02 42.885 256.02 41 254.5C38.613 255.913 36.28 256.58 34 256.5C33.383 255.551 33.549 254.718 34.5 254C32.939 253.682 31.772 252.849 31 251.5C30.138 253.087 29.471 254.754 29 256.5C27.933 255.809 26.766 255.309 25.5 255C26.167 254.667 26.833 254.333 27.5 254C25.888 253.28 24.388 253.446 23 254.5C22.683 252.699 22.016 252.366 21 253.5C19.149 251.219 17.482 251.219 16 253.5C14.247 252.373 12.413 251.373 10.5 250.5C8.837 251.875 7.503 251.542 6.5 249.5C5.828 250.949 5.16092 252.282 4.49992 253.5C3.15592 247.636 3.48992 241.969 5.49992 236.5C5.35092 237.552 5.51687 238.552 5.99987 239.5C8.08587 237.606 10.2529 235.773 12.4999 234C11.3459 233.086 11.5129 232.253 12.9999 231.5C15.6589 234.386 18.4929 234.719 21.4999 232.5C22.8419 233.902 23.6759 233.569 23.9999 231.5C24.6669 232.833 25.3329 234.167 25.9999 235.5C26.3079 234.692 26.8079 234.025 27.4999 233.5C28.7109 234.274 28.7109 235.107 27.4999 236C28.4159 236.374 29.2499 236.874 29.9999 237.5C30.2489 236.376 30.7489 235.376 31.4999 234.5C32.7319 235.145 34.0649 235.311 35.4999 235C35.1669 235.333 34.8329 235.667 34.4999 236C35.4159 236.374 36.2499 236.874 36.9999 237.5C37.9909 236.061 39.3239 235.061 40.9999 234.5C41.4649 235.931 42.2989 237.097 43.4999 238C42.1669 239.84 42.3339 240.34 43.9999 239.5C44.6909 242.266 46.1909 242.933 48.4999 241.5C49.5169 244.028 50.6839 244.028 51.9999 241.5C54.7959 242.211 57.6299 242.878 60.4999 243.5C61.2509 242.624 61.7509 241.624 61.9999 240.5C63.4409 241.26 64.9409 241.926 66.4999 242.5C67.2429 243.908 68.0769 245.241 68.9999 246.5C70.6879 245.675 70.8549 244.675 69.4999 243.5C72.4109 242.208 74.2439 243.208 74.9999 246.5C75.7719 245.151 76.9389 244.318 78.4999 244C77.3459 243.086 77.5129 242.253 78.9999 241.5C80.7789 242.479 82.4449 242.146 83.9999 240.5C85.7469 241.33 87.4129 242.33 88.9999 243.5C90.7959 243.087 92.4629 243.087 93.9999 243.5C97.0999 247.421 98.7659 247.087 98.9999 242.5C99.9999 244.167 101.333 245.5 103 246.5C103.308 245.692 103.808 245.025 104.5 244.5C104.833 245.167 105.167 245.833 105.5 246.5C106.192 245.975 106.692 245.308 107 244.5C108.343 245.214 109.676 244.88 111 243.5C113.772 244.886 116.938 245.886 120.5 246.5C122.055 246.278 123.389 245.611 124.5 244.5C125.854 246.184 127.521 246.684 129.5 246C128.167 245.333 128.167 244.667 129.5 244C133.382 243.782 137.049 243.948 140.5 244.5C142.566 241.702 144.066 242.035 145 245.5C145.494 243.866 145.66 242.199 145.5 240.5C146.675 240.281 147.675 240.614 148.5 241.5C148.154 242.696 147.654 242.696 147 241.5C146.251 242.635 146.417 243.635 147.5 244.5C149.81 241.929 152.31 240.262 155 239.5C155.333 240.5 155.667 241.5 156 242.5C157.117 241.051 157.784 239.384 158 237.5C158.903 238.701 160.069 239.535 161.5 240C160.549 240.718 160.383 241.551 161 242.5C161.689 241.643 162.522 240.977 163.5 240.5C165.412 240.488 167.412 240.821 169.5 241.5C170.799 240.91 171.632 239.91 172 238.5C172.667 239.167 173.333 239.833 174 240.5C176.588 239.203 179.088 238.203 181.5 237.5C182.696 237.846 182.696 238.346 181.5 239C183.574 238.773 185.574 238.939 187.5 239.5C189.271 238.965 189.604 238.131 188.5 237C190.925 236.707 192.758 235.541 194 233.5C195 234.833 196 234.833 197 233.5C197.085 235.085 197.251 236.418 197.5 237.5C198.478 237.023 199.311 236.357 200 235.5C201.016 236.634 201.683 236.301 202 234.5C202.667 235.167 203.333 235.833 204 236.5C206.343 235.873 208.51 234.873 210.5 233.5C212.614 234.034 214.448 235.034 216 236.5C217.395 235.57 218.895 235.57 220.5 236.5C221.938 236.281 223.271 235.781 224.5 235C224.167 234 223.833 233 223.5 232C225.74 231.023 228.073 230.523 230.5 230.5C230.205 232.735 230.539 234.735 231.5 236.5Z" fill="#C2DFEB"/>
<path fill-rule="evenodd" clip-rule="evenodd" d="M8.49992 219.5C83.6689 219.167 158.669 219.501 233.5 220.5C232.833 225.833 232.167 231.167 231.5 236.5C230.539 234.735 230.205 232.735 230.5 230.5C228.073 230.523 225.74 231.023 223.5 232C223.833 233 224.167 234 224.5 235C223.271 235.781 221.938 236.281 220.5 236.5C218.895 235.57 217.395 235.57 216 236.5C214.448 235.034 212.614 234.034 210.5 233.5C208.51 234.873 206.343 235.873 204 236.5C203.333 235.833 202.667 235.167 202 234.5C201.683 236.301 201.016 236.634 200 235.5C199.311 236.357 198.478 237.023 197.5 237.5C197.251 236.418 197.085 235.085 197 233.5C196 234.833 195 234.833 194 233.5C192.758 235.541 190.925 236.707 188.5 237C189.604 238.131 189.271 238.965 187.5 239.5C185.574 238.939 183.574 238.773 181.5 239C182.696 238.346 182.696 237.846 181.5 237.5C179.088 238.203 176.588 239.203 174 240.5C173.333 239.833 172.667 239.167 172 238.5C171.632 239.91 170.799 240.91 169.5 241.5C167.412 240.821 165.412 240.488 163.5 240.5C162.522 240.977 161.689 241.643 161 242.5C160.383 241.551 160.549 240.718 161.5 240C160.069 239.535 158.903 238.701 158 237.5C157.784 239.384 157.117 241.051 156 242.5C155.667 241.5 155.333 240.5 155 239.5C152.31 240.262 149.81 241.929 147.5 244.5C146.417 243.635 146.251 242.635 147 241.5C147.654 242.696 148.154 242.696 148.5 241.5C147.675 240.614 146.675 240.281 145.5 240.5C145.66 242.199 145.494 243.866 145 245.5C144.066 242.035 142.566 241.702 140.5 244.5C137.049 243.948 133.382 243.782 129.5 244C128.167 244.667 128.167 245.333 129.5 246C127.521 246.684 125.854 246.184 124.5 244.5C123.389 245.611 122.055 246.278 120.5 246.5C116.938 245.886 113.772 244.886 111 243.5C109.676 244.88 108.343 245.214 107 244.5C106.692 245.308 106.192 245.975 105.5 246.5C105.167 245.833 104.833 245.167 104.5 244.5C103.808 245.025 103.308 245.692 103 246.5C101.333 245.5 99.9999 244.167 98.9999 242.5C98.7659 247.087 97.0999 247.421 93.9999 243.5C92.4629 243.087 90.7959 243.087 88.9999 243.5C87.4129 242.33 85.7469 241.33 83.9999 240.5C82.4449 242.146 80.7789 242.479 78.9999 241.5C77.5129 242.253 77.3459 243.086 78.4999 244C76.9389 244.318 75.7719 245.151 74.9999 246.5C74.2439 243.208 72.4109 242.208 69.4999 243.5C70.8549 244.675 70.6879 245.675 68.9999 246.5C68.0769 245.241 67.2429 243.908 66.4999 242.5C64.9409 241.926 63.4409 241.26 61.9999 240.5C61.7509 241.624 61.2509 242.624 60.4999 243.5C57.6299 242.878 54.7959 242.211 51.9999 241.5C50.6839 244.028 49.5169 244.028 48.4999 241.5C46.1909 242.933 44.6909 242.266 43.9999 239.5C42.3339 240.34 42.1669 239.84 43.4999 238C42.2989 237.097 41.4649 235.931 40.9999 234.5C39.3239 235.061 37.9909 236.061 36.9999 237.5C36.2499 236.874 35.4159 236.374 34.4999 236C34.8329 235.667 35.1669 235.333 35.4999 235C34.0649 235.311 32.7319 235.145 31.4999 234.5C30.7489 235.376 30.2489 236.376 29.9999 237.5C29.2499 236.874 28.4159 236.374 27.4999 236C28.7109 235.107 28.7109 234.274 27.4999 233.5C26.8079 234.025 26.3079 234.692 25.9999 235.5C25.3329 234.167 24.6669 232.833 23.9999 231.5C23.6759 233.569 22.8419 233.902 21.4999 232.5C18.4929 234.719 15.6589 234.386 12.9999 231.5C11.5129 232.253 11.3459 233.086 12.4999 234C10.2529 235.773 8.08587 237.606 5.99987 239.5C5.51687 238.552 5.35092 237.552 5.49992 236.5C5.77592 230.575 6.77592 224.908 8.49992 219.5Z" fill="#CDE3ED"/>
<path fill-rule="evenodd" clip-rule="evenodd" d="M8.5 214.5C83.833 214.5 159.167 214.5 234.5 214.5C234.795 216.735 234.461 218.735 233.5 220.5C158.669 219.501 83.6689 219.167 8.49992 219.5C8.49992 217.833 8.5 216.167 8.5 214.5Z" fill="#A4D4E4"/>
<path fill-rule="evenodd" clip-rule="evenodd" d="M234.5 241.5C235.266 243.684 235.933 246.018 236.5 248.5C234.712 253.413 233.045 258.413 231.5 263.5C231.624 264.107 231.957 264.44 232.5 264.5C228.558 270.453 223.225 274.453 216.5 276.5C156.529 277.489 96.529 277.822 36.5 277.5C30.56 277.879 24.893 276.879 19.5 274.5C16.833 273.167 14.1669 271.833 11.4999 270.5C78.9219 270.657 146.588 270.49 214.5 270C217.754 269.75 220.754 268.75 223.5 267C230.746 260.11 234.413 251.61 234.5 241.5Z" fill="#3590B0"/>
<path fill-rule="evenodd" clip-rule="evenodd" d="M216.5 276.5C217.167 276.5 217.5 276.833 217.5 277.5C213.915 278.583 210.249 279.249 206.5 279.5C153.167 279.5 99.833 279.5 46.5 279.5C42.96 279.247 39.627 278.581 36.5 277.5C96.529 277.822 156.529 277.489 216.5 276.5Z" fill="#733D0B"/>
<path fill-rule="evenodd" clip-rule="evenodd" d="M46.5 279.5C99.833 279.5 153.167 279.5 206.5 279.5C204.337 280.469 202.004 281.302 199.5 282C154.162 282.69 108.829 282.524 63.5 281.5C57.611 281.55 51.944 280.884 46.5 279.5Z" fill="#6A4C1E"/>
<path fill-rule="evenodd" clip-rule="evenodd" d="M217.5 277.5C218.222 277.918 218.722 278.584 219 279.5C220.507 278.465 222.007 278.632 223.5 280C220.666 280.045 218.166 280.879 216 282.5C215.667 282.167 215.333 281.833 215 281.5C210.251 282.305 205.418 282.805 200.5 283C199.5 283.5 198.5 284 197.5 284.5C192.054 283.94 186.554 283.606 181 283.5C180.667 284.167 180.333 284.833 180 285.5C176.924 284.712 173.758 284.212 170.5 284C156.181 283.57 142.014 283.403 128 283.5C125.551 283.861 123.218 284.528 121 285.5C117.045 284.225 113.045 284.225 109 285.5C106.214 283.941 103.381 283.608 100.5 284.5C88.024 283.72 75.691 282.72 63.5 281.5C108.829 282.524 154.162 282.69 199.5 282C202.004 281.302 204.337 280.469 206.5 279.5C210.249 279.249 213.915 278.583 217.5 277.5Z" fill="#7E551C"/>
</svg>
